{
	"asset":{
		"version":"2.0",
		"generator":"Houdini GLTF 2.0 Exporter"
	},
	"accessors":[
		{
			"bufferView":0,
			"componentType":5125,
			"count":937149,
			"type":"SCALAR",
			"min":[0
			],
			"max":[418465
			]
		},
		{
			"bufferView":1,
			"componentType":5126,
			"count":418466,
			"type":"VEC3",
			"min":[-369.750153,-71.7916565,-359.417542
			],
			"max":[310.282257,764.227661,295.402771
			]
		},
		{
			"bufferView":2,
			"componentType":5126,
			"count":418466,
			"type":"VEC3",
			"min":[0,0,0
			],
			"max":[0,0,0
			]
		},
		{
			"bufferView":3,
			"componentType":5126,
			"count":418466,
			"type":"VEC3",
			"min":[0,0,0
			],
			"max":[0,0,0
			]
		},
		{
			"bufferView":4,
			"componentType":5126,
			"count":418466,
			"type":"VEC3",
			"min":[0,0,0
			],
			"max":[0,0,0
			]
		},
		{
			"bufferView":5,
			"componentType":5126,
			"count":418466,
			"type":"VEC4",
			"min":[-0.999998987,-0.999981582,-0.999977529,1
			],
			"max":[0.999985456,0.999960482,0.999996245,1
			]
		},
		{
			"bufferView":6,
			"componentType":5126,
			"count":418466,
			"type":"VEC2",
			"min":[0.001953125,0.00158917904
			],
			"max":[0.998037815,0.994670749
			]
		},
		{
			"bufferView":7,
			"componentType":5126,
			"count":418466,
			"type":"VEC3",
			"min":[-0.999999523,-0.999997914,-0.999989688
			],
			"max":[0.999997616,0.999998391,0.999999881
			]
		}
	],
	"buffers":[
		{
			"uri":"cherry_blossom_01_data.bin",
			"byteLength":38899740,
			"name":"main_buffer"
		}
	],
	"bufferViews":[
		{
			"buffer":0,
			"byteLength":3748596,
			"target":34963
		},
		{
			"buffer":0,
			"byteOffset":3748596,
			"byteLength":5021592,
			"target":34962
		},
		{
			"buffer":0,
			"byteOffset":8770188,
			"byteLength":5021592,
			"target":34962
		},
		{
			"buffer":0,
			"byteOffset":13791780,
			"byteLength":5021592,
			"target":34962
		},
		{
			"buffer":0,
			"byteOffset":18813372,
			"byteLength":5021592,
			"target":34962
		},
		{
			"buffer":0,
			"byteOffset":23834964,
			"byteLength":6695456,
			"target":34962
		},
		{
			"buffer":0,
			"byteOffset":30530420,
			"byteLength":3347728,
			"target":34962
		},
		{
			"buffer":0,
			"byteOffset":33878148,
			"byteLength":5021592,
			"target":34962
		}
	],
	"nodes":[
		{
			"name":"file1",
			"mesh":0
		}
	],
	"meshes":[
		{
			"primitives":[
				{
					"attributes":{
						"NORMAL":7,
						"_fbx_rotation":4,
						"TEXCOORD_0":6,
						"TANGENT":5,
						"_fbx_scale":3,
						"_fbx_translation":2,
						"POSITION":1
					},
					"indices":0,
					"material":0
				}
			],
			"name":"unpack2"
		}
	],
	"materials":[
		{
			"name":"cherryBlossom",
			"pbrMetallicRoughness":{
				"metallicFactor":0,
				"roughnessFactor":0.953000009,
				"baseColorTexture":{
					"index":0
				}
			},
			"normalTexture":{
				"index":1
			}
		}
	],
	"scenes":[
		{
			"nodes":[0
			]
		}
	],
	"textures":[
		{
			"source":0
		},
		{
			"source":1
		}
	],
	"images":[
		{
			"uri":"cherryBlossom_toTexture_all_l_cherryBlossom_BaseColor.png",
			"mimeType":"image/png"
		},
		{
			"uri":"cherryBlossom_toTexture_all_l_cherryBlossom_Normal.png",
			"mimeType":"image/png"
		}
	],
	"scene":0
}
