{
	"asset":{
		"generator":"Khronos glTF Blender I/O v3.5.30",
		"version":"2.0"
	},
	"extensionsUsed":[
		"KHR_materials_specular",
		"KHR_materials_ior"
	],
	"scene":0,
	"scenes":[
		{
			"name":"Scene",
			"nodes":[
				0
			]
		}
	],
	"nodes":[
		{
			"mesh":0,
			"name":"transform1",
			"rotation":[
				0.7071068286895752,
				0,
				0,
				0.7071068286895752
			],
			"scale":[
				0.009999999776482582,
				0.009999999776482582,
				0.009999999776482582
			]
		}
	],
	"materials":[
		{
			"doubleSided":true,
			"extensions":{
				"KHR_materials_specular":{
					"specularColorFactor":[
						0.2147292010848356,
						0.2147292010848356,
						0.2147292010848356
					]
				},
				"KHR_materials_ior":{
					"ior":1.4500000476837158
				}
			},
			"name":"atlas_trexScene",
			"normalTexture":{
				"index":0
			},
			"pbrMetallicRoughness":{
				"baseColorTexture":{
					"index":1
				},
				"metallicFactor":0,
				"metallicRoughnessTexture":{
					"index":2
				}
			}
		}
	],
	"meshes":[
		{
			"name":"transform1",
			"primitives":[
				{
					"attributes":{
						"POSITION":0,
						"TEXCOORD_0":1,
						"NORMAL":2
					},
					"indices":3,
					"material":0
				}
			]
		}
	],
	"textures":[
		{
			"sampler":0,
			"source":0
		},
		{
			"sampler":0,
			"source":1
		},
		{
			"sampler":0,
			"source":2
		}
	],
	"images":[
		{
			"mimeType":"image/png",
			"name":"trex_pond_rocks_04_atlased_Trex_Normal",
			"uri":"trex_pond_rocks_04_atlased_Trex_Normal.png"
		},
		{
			"mimeType":"image/png",
			"name":"trex_pond_rocks_04_atlased_Trex_BaseColor",
			"uri":"trex_pond_rocks_04_atlased_Trex_BaseColor.png"
		},
		{
			"mimeType":"image/png",
			"name":"trex_pond_rocks_04_atlased_Trex_Roughness",
			"uri":"trex_pond_rocks_04_atlased_Trex_Roughness.png"
		}
	],
	"accessors":[
		{
			"bufferView":0,
			"componentType":5126,
			"count":101088,
			"max":[
				7.759629249572754,
				7.518772602081299,
				0.23104777932167053
			],
			"min":[
				-8.003263473510742,
				-10.81840991973877,
				-6.6336822509765625
			],
			"type":"VEC3"
		},
		{
			"bufferView":1,
			"componentType":5126,
			"count":101088,
			"type":"VEC2"
		},
		{
			"bufferView":2,
			"componentType":5126,
			"count":101088,
			"type":"VEC3"
		},
		{
			"bufferView":3,
			"componentType":5125,
			"count":288402,
			"type":"SCALAR"
		}
	],
	"bufferViews":[
		{
			"buffer":0,
			"byteLength":1213056,
			"byteOffset":0,
			"target":34962
		},
		{
			"buffer":0,
			"byteLength":808704,
			"byteOffset":1213056,
			"target":34962
		},
		{
			"buffer":0,
			"byteLength":1213056,
			"byteOffset":2021760,
			"target":34962
		},
		{
			"buffer":0,
			"byteLength":1153608,
			"byteOffset":3234816,
			"target":34963
		}
	],
	"samplers":[
		{
			"magFilter":9729,
			"minFilter":9987
		}
	],
	"buffers":[
		{
			"byteLength":4388424,
			"uri":"fountain_atlas.bin"
		}
	]
}
