{
	"asset":{
		"generator":"Khronos glTF Blender I/O v3.6.28",
		"version":"2.0"
	},
	"scene":0,
	"scenes":[
		{
			"name":"Scene",
			"nodes":[
				5
			]
		}
	],
	"nodes":[
		{
			"mesh":0,
			"name":"node_id31",
			"scale":[
				3.0635576248168945,
				3.0635576248168945,
				3.0635576248168945
			],
			"translation":[
				0.0018198940670117736,
				-128.47267150878906,
				254.386474609375
			]
		},
		{
			"mesh":1,
			"name":"node_id33",
			"scale":[
				3.0635576248168945,
				3.0635576248168945,
				3.0635576248168945
			],
			"translation":[
				0.0018198940670117736,
				-128.47267150878906,
				254.386474609375
			]
		},
		{
			"mesh":2,
			"name":"node_id35",
			"scale":[
				3.0635576248168945,
				3.0635576248168945,
				3.0635576248168945
			],
			"translation":[
				0.0018198940670117736,
				-128.47267150878906,
				254.386474609375
			]
		},
		{
			"mesh":3,
			"name":"node_id37",
			"scale":[
				3.0635576248168945,
				3.0635576248168945,
				3.0635576248168945
			],
			"translation":[
				0.0018198940670117736,
				-128.47267150878906,
				254.386474609375
			]
		},
		{
			"children":[
				0,
				1,
				2,
				3
			],
			"name":"node_id39",
			"scale":[
				0.0010000000474974513,
				0.0010000000474974513,
				0.0010000000474974513
			]
		},
		{
			"children":[
				4
			],
			"name":"root"
		}
	],
	"materials":[
		{
			"alphaCutoff":0.5,
			"alphaMode":"MASK",
			"doubleSided":true,
			"name":"54",
			"pbrMetallicRoughness":{}
		},
		{
			"alphaCutoff":0.5,
			"alphaMode":"MASK",
			"doubleSided":true,
			"name":"55",
			"pbrMetallicRoughness":{}
		},
		{
			"alphaCutoff":0.5,
			"alphaMode":"MASK",
			"doubleSided":true,
			"name":"56",
			"pbrMetallicRoughness":{}
		},
		{
			"alphaCutoff":0.5,
			"alphaMode":"MASK",
			"doubleSided":true,
			"name":"57",
			"pbrMetallicRoughness":{}
		}
	],
	"meshes":[
		{
			"name":"mesh_id32",
			"primitives":[
				{
					"attributes":{
						"POSITION":0,
						"NORMAL":1,
						"TEXCOORD_0":2
					},
					"indices":3,
					"material":0
				}
			]
		},
		{
			"name":"mesh_id34",
			"primitives":[
				{
					"attributes":{
						"POSITION":4,
						"NORMAL":5,
						"TEXCOORD_0":6
					},
					"indices":7,
					"material":1
				}
			]
		},
		{
			"name":"mesh_id36",
			"primitives":[
				{
					"attributes":{
						"POSITION":8,
						"NORMAL":9,
						"TEXCOORD_0":10
					},
					"indices":11,
					"material":2
				}
			]
		},
		{
			"name":"mesh_id38",
			"primitives":[
				{
					"attributes":{
						"POSITION":12,
						"NORMAL":13,
						"TEXCOORD_0":14
					},
					"indices":15,
					"material":3
				}
			]
		}
	],
	"accessors":[
		{
			"bufferView":0,
			"componentType":5126,
			"count":93013,
			"max":[
				68.1478271484375,
				69.91510772705078,
				38.80462646484375
			],
			"min":[
				-82.30620574951172,
				0.9972360134124756,
				-18.850990295410156
			],
			"type":"VEC3"
		},
		{
			"bufferView":1,
			"componentType":5126,
			"count":93013,
			"type":"VEC3"
		},
		{
			"bufferView":2,
			"componentType":5126,
			"count":93013,
			"type":"VEC2"
		},
		{
			"bufferView":3,
			"componentType":5125,
			"count":98955,
			"type":"SCALAR"
		},
		{
			"bufferView":4,
			"componentType":5126,
			"count":38577,
			"max":[
				83.56236267089844,
				79.49543762207031,
				45.67630386352539
			],
			"min":[
				-83.56358337402344,
				1.1156904697418213,
				-44.6229248046875
			],
			"type":"VEC3"
		},
		{
			"bufferView":5,
			"componentType":5126,
			"count":38577,
			"type":"VEC3"
		},
		{
			"bufferView":6,
			"componentType":5126,
			"count":38577,
			"type":"VEC2"
		},
		{
			"bufferView":7,
			"componentType":5123,
			"count":38577,
			"type":"SCALAR"
		},
		{
			"bufferView":8,
			"componentType":5126,
			"count":30483,
			"max":[
				59.47463607788086,
				79.08428192138672,
				17.97861099243164
			],
			"min":[
				-20.370698928833008,
				0.8014298677444458,
				-22.57465934753418
			],
			"type":"VEC3"
		},
		{
			"bufferView":9,
			"componentType":5126,
			"count":30483,
			"type":"VEC3"
		},
		{
			"bufferView":10,
			"componentType":5126,
			"count":30483,
			"type":"VEC2"
		},
		{
			"bufferView":11,
			"componentType":5123,
			"count":31323,
			"type":"SCALAR"
		},
		{
			"bufferView":12,
			"componentType":5126,
			"count":58825,
			"max":[
				28.15191650390625,
				83.07015228271484,
				11.536823272705078
			],
			"min":[
				-81.61797332763672,
				1.790116786956787,
				-28.31385612487793
			],
			"type":"VEC3"
		},
		{
			"bufferView":13,
			"componentType":5126,
			"count":58825,
			"type":"VEC3"
		},
		{
			"bufferView":14,
			"componentType":5126,
			"count":58825,
			"type":"VEC2"
		},
		{
			"bufferView":15,
			"componentType":5123,
			"count":59853,
			"type":"SCALAR"
		}
	],
	"bufferViews":[
		{
			"buffer":0,
			"byteLength":1116156,
			"byteOffset":0,
			"target":34962
		},
		{
			"buffer":0,
			"byteLength":1116156,
			"byteOffset":1116156,
			"target":34962
		},
		{
			"buffer":0,
			"byteLength":744104,
			"byteOffset":2232312,
			"target":34962
		},
		{
			"buffer":0,
			"byteLength":395820,
			"byteOffset":2976416,
			"target":34963
		},
		{
			"buffer":0,
			"byteLength":462924,
			"byteOffset":3372236,
			"target":34962
		},
		{
			"buffer":0,
			"byteLength":462924,
			"byteOffset":3835160,
			"target":34962
		},
		{
			"buffer":0,
			"byteLength":308616,
			"byteOffset":4298084,
			"target":34962
		},
		{
			"buffer":0,
			"byteLength":77154,
			"byteOffset":4606700,
			"target":34963
		},
		{
			"buffer":0,
			"byteLength":365796,
			"byteOffset":4683856,
			"target":34962
		},
		{
			"buffer":0,
			"byteLength":365796,
			"byteOffset":5049652,
			"target":34962
		},
		{
			"buffer":0,
			"byteLength":243864,
			"byteOffset":5415448,
			"target":34962
		},
		{
			"buffer":0,
			"byteLength":62646,
			"byteOffset":5659312,
			"target":34963
		},
		{
			"buffer":0,
			"byteLength":705900,
			"byteOffset":5721960,
			"target":34962
		},
		{
			"buffer":0,
			"byteLength":705900,
			"byteOffset":6427860,
			"target":34962
		},
		{
			"buffer":0,
			"byteLength":470600,
			"byteOffset":7133760,
			"target":34962
		},
		{
			"buffer":0,
			"byteLength":119706,
			"byteOffset":7604360,
			"target":34963
		}
	],
	"buffers":[
		{
			"byteLength":7724068,
			"uri":"village.bin"
		}
	]
}
